# xmcd
#
# Track frame offsets:
#	150
#	13342
#	27893
#	39870
#	52880
#	64771
#	80098
#	90664
#	107659
#	119671
#	131405
#	143349
#	156782
#	173302
#	189466
#	206762
#	222158
#
# Disc length: 3196
#
# Revision: 1
# Processed by: cddbd v1.5.1PL0 Copyright (c) Steve Scherf et al.
# Submitted via: CDex 1.50beta10
# Normalized: r0:DSETVAR1
#
DISCID=de0c7a11
DTITLE=Various Artist - All Time Classic Country Tearjerkers - CD1
DYEAR=1999
DGENRE=Country
TTITLE0=Dolly Parton - I Will Always Love You
TTITLE1=Roy Orbison - Crawling Back
TTITLE2=Don Gibson - I Can't Stop Loving You
TTITLE3=Faron Young - Your Cheatin' Heart
TTITLE4=Mandy Barnett - Funny, Familiar, Forgotten Feelings
TTITLE5=John Conlee - Rose Colored Glasses
TTITLE6=Jim Reeves - He'll Have To Go
TTITLE7=D. Parton, L. Ronstadt and E. Ha - To Know Him Is To Love Him
TTITLE8=Frankie Laine - High Noon
TTITLE9=Johnny Cash - I Still Miss Someone
TTITLE10=The Everly Brothers - Nashville Blues
TTITLE11=Ricky Skaggs - Cry, Cry Darlin'
TTITLE12=Carlene Carter - Unbreakable Heart
TTITLE13=Travis Tritt - Can I Trust You With My Heart
TTITLE14=Rodney Crowell - She Ain't Going Nowhere
TTITLE15=Kris Kristofferson - For The Good Times
TTITLE16=The Judds - Love Can Build A Bridge
EXTD=YEAR: 1999
EXTT0=
EXTT1=
EXTT2=
EXTT3=
EXTT4=
EXTT5=
EXTT6=
EXTT7=
EXTT8=
EXTT9=
EXTT10=
EXTT11=
EXTT12=
EXTT13=
EXTT14=
EXTT15=
EXTT16=
PLAYORDER=
